<?xml version="1.0" standalone="yes"?>
<svg xmlns="http://www.w3.org/2000/svg" width="179" height="115">
<path style="fill:#faf9fa; stroke:none;" d="M0 0L0 115L179 115L179 0L0 0z"/>
<path style="fill:#c56aaf; stroke:none;" d="M149.667 10.3333L150.333 10.6667L149.667 10.3333z"/>
<path style="fill:#6c3ead; stroke:none;" d="M151 10L151 11L155 11L151 10z"/>
<path style="fill:#380196; stroke:none;" d="M121 52C125.732 31.5549 142.207 25.3751 161 23L161 10C148.67 10.2545 135.243 12.4529 125 19.7886C104.56 34.4269 96.5013 66.4711 108.27 88.9606C118.456 108.426 147.967 112.118 162.815 95.9599C182.257 74.8023 166.246 37.0532 136 43.5177C130.066 44.7861 125.5 48.1094 121 52z"/>
<path style="fill:#6c3ead; stroke:none;" d="M161 10L161 23L157 23L157 24C163.328 22.9439 163.099 15.0013 161 10z"/>
<path style="fill:#c56aaf; stroke:none;" d="M144 11L145 12L144 11z"/>
<path style="fill:#6c3ead; stroke:none;" d="M145 11L146 12L145 11z"/>
<path style="fill:#c56aaf; stroke:none;" d="M31 12L32 13L31 12z"/>
<path style="fill:#6c3ead; stroke:none;" d="M32 12L33 13L32 12z"/>
<path style="fill:#380196; stroke:none;" d="M7 41C10.4064 41 15.4518 41.9202 18.5818 40.3966C23.844 37.8352 24.7566 29.785 31.0008 26.9699C47.115 19.7052 62.0939 33.9309 57 50L73 40C68.0174 3.02879 10.3378 3.00922 7 41z"/>
<path style="fill:#6c3ead; stroke:none;" d="M46 12L47 13L46 12z"/>
<path style="fill:#c56aaf; stroke:none;" d="M47 12L48 13L47 12z"/>
<path style="fill:#6c3ead; stroke:none;" d="M140 12L141 13L140 12z"/>
<path style="fill:#c56aaf; stroke:none;" d="M27 13L28 14L27 13z"/>
<path style="fill:#6c3ead; stroke:none;" d="M28 13L29 14L28 13M50 13L51 14L50 13z"/>
<path style="fill:#c56aaf; stroke:none;" d="M51 13L52 14L51 13M136 13L137 14L136 13z"/>
<path style="fill:#6c3ead; stroke:none;" d="M137.667 13.3333L138.333 13.6667L137.667 13.3333z"/>
<path style="fill:#c56aaf; stroke:none;" d="M25 14L26 15L25 14z"/>
<path style="fill:#6c3ead; stroke:none;" d="M53 14L54 15L53 14z"/>
<path style="fill:#c56aaf; stroke:none;" d="M54 14L55 15L54 14M134 14L135 15L134 14z"/>
<path style="fill:#6c3ead; stroke:none;" d="M23 15L24 16L23 15z"/>
<path style="fill:#c56aaf; stroke:none;" d="M56 15L57 16L56 15z"/>
<path style="fill:#6c3ead; stroke:none;" d="M132 15L133 16L132 15z"/>
<path style="fill:#c56aaf; stroke:none;" d="M21 16L22 17L21 16z"/>
<path style="fill:#6c3ead; stroke:none;" d="M57 16L58 17L57 16z"/>
<path style="fill:#c56aaf; stroke:none;" d="M58 16L59 17L58 16z"/>
<path style="fill:#6c3ead; stroke:none;" d="M130 16L131 17L130 16M20 17L21 18L20 17M59 17L60 18L59 17M128 17L129 18L128 17z"/>
<path style="fill:#c56aaf; stroke:none;" d="M18 18L19 19L18 18M61 18L62 19L61 18M126 18L127 19L126 18z"/>
<path style="fill:#6c3ead; stroke:none;" d="M17 19L18 20L17 19z"/>
<path style="fill:#c56aaf; stroke:none;" d="M62 19L63 20L62 19z"/>
<path style="fill:#6c3ead; stroke:none;" d="M125 19L126 20L125 19z"/>
<path style="fill:#c56aaf; stroke:none;" d="M16 20L17 21L16 20z"/>
<path style="fill:#6c3ead; stroke:none;" d="M63 20L64 21L63 20z"/>
<path style="fill:#c56aaf; stroke:none;" d="M123 20L124 21L123 20M15 21L16 22L15 21z"/>
<path style="fill:#6c3ead; stroke:none;" d="M64 21L65 22L64 21z"/>
<path style="fill:#c56aaf; stroke:none;" d="M122 21L123 22L122 21M14 22L15 23L14 22z"/>
<path style="fill:#6c3ead; stroke:none;" d="M65 22L66 23L65 22M121 22L122 23L121 22z"/>
<path style="fill:#c56aaf; stroke:none;" d="M13 23L14 24L13 23z"/>
<path style="fill:#6c3ead; stroke:none;" d="M66 23L67 24L66 23M120 23L121 24L120 23z"/>
<path style="fill:#c56aaf; stroke:none;" d="M161 23L162 24L161 23M67 24L68 25L67 24z"/>
<path style="fill:#6c3ead; stroke:none;" d="M119 24L120 25L119 24M149.667 24.3333L150.333 24.6667L149.667 24.3333z"/>
<path style="fill:#c56aaf; stroke:none;" d="M151.667 24.3333L152.333 24.6667L151.667 24.3333z"/>
<path style="fill:#6c3ead; stroke:none;" d="M12 25L13 26L12 25M35 25L36 26L35 25z"/>
<path style="fill:#c56aaf; stroke:none;" d="M36 25L37 26L36 25M41.6667 25.3333L42.3333 25.6667L41.6667 25.3333z"/>
<path style="fill:#6c3ead; stroke:none;" d="M43 25L44 26L43 25M118 25L119 26L118 25M145 25L146 26L145 25z"/>
<path style="fill:#c56aaf; stroke:none;" d="M146 25L147 26L146 25M11 26L12 27L11 26z"/>
<path style="fill:#6c3ead; stroke:none;" d="M31 26L32 27L31 26z"/>
<path style="fill:#c56aaf; stroke:none;" d="M32 26L33 27L32 26M46 26L47 27L46 26z"/>
<path style="fill:#6c3ead; stroke:none;" d="M47 26L48 27L47 26M68 26L69 27L68 26M117 26L118 27L117 26M142 26L143 27L142 26z"/>
<path style="fill:#c56aaf; stroke:none;" d="M143 26L144 27L143 26z"/>
<path style="fill:#6c3ead; stroke:none;" d="M29 27L30 28L29 27z"/>
<path style="fill:#c56aaf; stroke:none;" d="M49 27L50 28L49 27M69 27L70 28L69 27z"/>
<path style="fill:#6c3ead; stroke:none;" d="M116 27L117 28L116 27M139 27L140 28L139 27z"/>
<path style="fill:#c56aaf; stroke:none;" d="M140 27L141 28L140 27M10 28L11 29L10 28z"/>
<path style="fill:#6c3ead; stroke:none;" d="M27 28L28 29L27 28M51 28L52 29L51 28z"/>
<path style="fill:#c56aaf; stroke:none;" d="M115 28L116 29L115 28z"/>
<path style="fill:#6c3ead; stroke:none;" d="M26 29L27 30L26 29z"/>
<path style="fill:#c56aaf; stroke:none;" d="M52 29L53 30L52 29M70 29L71 30L70 29M114 29L115 30L114 29M136 29L137 30L136 29M9 30L10 31L9 30z"/>
<path style="fill:#6c3ead; stroke:none;" d="M25 30L26 31L25 30M134 30L135 31L134 30M9 31L10 32L9 31M24 31L25 32L24 31z"/>
<path style="fill:#c56aaf; stroke:none;" d="M71 31L72 32L71 31M133 31L134 32L133 31M8 32L9 33L8 32M55 32L56 33L55 32z"/>
<path style="fill:#6c3ead; stroke:none;" d="M71 32L72 33L71 32z"/>
<path style="fill:#c56aaf; stroke:none;" d="M112 32L113 33L112 32z"/>
<path style="fill:#6c3ead; stroke:none;" d="M8 33L9 34L8 33M56 33L57 34L56 33M130 33L131 34L130 33M22 34L23 35L22 34z"/>
<path style="fill:#c56aaf; stroke:none;" d="M72 34L73 35L72 34z"/>
<path style="fill:#6c3ead; stroke:none;" d="M111 34L112 35L111 34M57 35L58 36L57 35M72.3333 35.6667L72.6667 36.3333L72.3333 35.6667z"/>
<path style="fill:#c56aaf; stroke:none;" d="M110 35L111 36L110 35M7 36L8 37L7 36z"/>
<path style="fill:#6c3ead; stroke:none;" d="M21 36L22 37L21 36z"/>
<path style="fill:#c56aaf; stroke:none;" d="M21 37L22 38L21 37M109 37L110 38L109 37M127 37L128 38L127 37z"/>
<path style="fill:#6c3ead; stroke:none;" d="M58 38L59 39L58 38z"/>
<path style="fill:#c56aaf; stroke:none;" d="M79 38L79 39L88 39L79 38z"/>
<path style="fill:#6c3ead; stroke:none;" d="M126 38L127 39L126 38z"/>
<path style="fill:#c56aaf; stroke:none;" d="M6 39C7.06372 43.964 15.7946 42 20 42L20 41L6 39z"/>
<path style="fill:#6c3ead; stroke:none;" d="M20 39L21 40L20 39z"/>
<path style="fill:#c56aaf; stroke:none;" d="M58 39L58 45L59 45L58 39M73.6667 39.3333L74.3333 39.6667L73.6667 39.3333z"/>
<path style="fill:#fe0256; stroke:none;" d="M104 73L103 73C101.792 96.2798 68.7344 99.0382 63.6844 76C58.3747 51.777 92.0367 46.0117 102 66C111.382 45.1007 94.3646 35.8143 75 39.4676C62.4047 41.8438 52.4509 52.7358 49.6798 65C45.4842 83.5684 58.0061 101.528 76 105.764C86.1817 108.161 104.333 105.225 108.867 93.9992C111.018 88.6734 104.277 79.0676 104 73z"/>
<path style="fill:#c56aaf; stroke:none;" d="M91.6667 39.3333L92.3333 39.6667L91.6667 39.3333M108 39L109 40L108 39z"/>
<path style="fill:#6c3ead; stroke:none;" d="M108 40L109 41L108 40z"/>
<path style="fill:#c56aaf; stroke:none;" d="M125 40L126 41L125 40M97 41L98 42L97 41z"/>
<path style="fill:#6c3ead; stroke:none;" d="M124 41L125 42L124 41z"/>
<path style="fill:#c56aaf; stroke:none;" d="M99 42L100 43L99 42z"/>
<path style="fill:#6c3ead; stroke:none;" d="M107 42L108 43L107 42z"/>
<path style="fill:#c56aaf; stroke:none;" d="M124 42L125 43L124 42M139 42L139 43L147 43L139 42M101 43L102 44L101 43z"/>
<path style="fill:#6c3ead; stroke:none;" d="M123 43L124 44L123 43z"/>
<path style="fill:#c56aaf; stroke:none;" d="M134 43L135 44L134 43z"/>
<path style="fill:#6c3ead; stroke:none;" d="M135 43L136 44L135 43M150 43L151 44L150 43M63 44L64 45L63 44z"/>
<path style="fill:#c56aaf; stroke:none;" d="M102 44L103 45L102 44M106 44L107 45L106 44M131 44L132 45L131 44z"/>
<path style="fill:#6c3ead; stroke:none;" d="M132 44L133 45L132 44M153 44L154 45L153 44M58 45L59 46L58 45M106 45L107 46L106 45z"/>
<path style="fill:#c56aaf; stroke:none;" d="M129 45L130 46L129 45z"/>
<path style="fill:#6c3ead; stroke:none;" d="M155 45L156 46L155 45z"/>
<path style="fill:#c56aaf; stroke:none;" d="M156 45L157 46L156 45M105 46L106 47L105 46z"/>
<path style="fill:#6c3ead; stroke:none;" d="M122 46L123 47L122 46z"/>
<path style="fill:#c56aaf; stroke:none;" d="M127 46L128 47L127 46z"/>
<path style="fill:#6c3ead; stroke:none;" d="M157 46L158 47L157 46z"/>
<path style="fill:#c56aaf; stroke:none;" d="M122 47L123 48L122 47z"/>
<path style="fill:#6c3ead; stroke:none;" d="M126 47L127 48L126 47z"/>
<path style="fill:#c56aaf; stroke:none;" d="M159 47L160 48L159 47M57 48L58 49L57 48z"/>
<path style="fill:#6c3ead; stroke:none;" d="M125 48L126 49L125 48M160 48L161 49L160 48M121 49L122 50L121 49z"/>
<path style="fill:#c56aaf; stroke:none;" d="M56 50L57 51L56 50M121 50L122 51L121 50z"/>
<path style="fill:#6c3ead; stroke:none;" d="M121 51L122 52L121 51z"/>
<path style="fill:#c56aaf; stroke:none;" d="M55 52L56 53L55 52M82 52L82 53L85 53L82 52z"/>
<path style="fill:#6c3ead; stroke:none;" d="M164 52L165 53L164 52z"/>
<path style="fill:#c56aaf; stroke:none;" d="M54 53L55 54L54 53z"/>
<path style="fill:#faf9fa; stroke:none;" d="M77 53.6489C52.0408 61.1779 65.3059 99.4984 90 91.1458C113.978 83.0355 100.89 46.4425 77 53.6489z"/>
<path style="fill:#c56aaf; stroke:none;" d="M89 53L90 54L89 53z"/>
<path style="fill:#6c3ead; stroke:none;" d="M165 53L166 54L165 53z"/>
<path style="fill:#c56aaf; stroke:none;" d="M74 54L75 55L74 54M91 54L92 55L91 54M166 54L167 55L166 54M72 55L73 56L72 55M93 55L94 56L93 55z"/>
<path style="fill:#6c3ead; stroke:none;" d="M133 55L133 56L136 56L133 55z"/>
<path style="fill:#c56aaf; stroke:none;" d="M136 55L136 56L139 56L136 55z"/>
<path style="fill:#6c3ead; stroke:none;" d="M139.667 55.3333L140.333 55.6667L139.667 55.3333z"/>
<path style="fill:#380196; stroke:none;" d="M52 56L53 57L52 56z"/>
<path style="fill:#c56aaf; stroke:none;" d="M71 56L72 57L71 56M131 56L132 57L131 56z"/>
<path style="fill:#faf9fa; stroke:none;" d="M132.001 56.6381C112.054 62.4312 121.738 97.7509 141.999 92.4421C161.703 87.2793 154.491 50.1061 132.001 56.6381z"/>
<path style="fill:#6c3ead; stroke:none;" d="M143 56L144 57L143 56z"/>
<path style="fill:#c56aaf; stroke:none;" d="M167 56L168 57L167 56M50 57L48 60L50 57z"/>
<path style="fill:#380196; stroke:none;" d="M51 57C37.3112 70.1011 6.00223 85.8054 6 106L64 106L64 105L50.8302 94.6034L29 94C38.5768 82.1318 54.8841 75.4986 51 57z"/>
<path style="fill:#c56aaf; stroke:none;" d="M96 57L97 58L96 57M129 57L130 58L129 57M145 57L146 58L145 57M97 58L98 59L97 58M127 58L128 59L127 58z"/>
<path style="fill:#6c3ead; stroke:none;" d="M147 58L148 59L147 58M168 58L169 59L168 58M51 59L52 60L51 59M148 59L149 60L148 59M47 60L48 61L47 60M149 60L150 61L149 60z"/>
<path style="fill:#c56aaf; stroke:none;" d="M169 60L170 61L169 60z"/>
<path style="fill:#6c3ead; stroke:none;" d="M46 61L47 62L46 61z"/>
<path style="fill:#c56aaf; stroke:none;" d="M66 61L67 62L66 61M124 61L125 62L124 61M68 62C64.2831 69.091 64.2831 75.909 68 83L69 83L68 62M100 62L101 63L100 62M123 62L124 63L123 62M150 62L151 63L150 62M43 63L44 64L43 63M65 63L66 64L65 63z"/>
<path style="fill:#6c3ead; stroke:none;" d="M122 63L123 64L122 63M151 63L152 64L151 63z"/>
<path style="fill:#c56aaf; stroke:none;" d="M170 63L171 64L170 63M42 64L43 65L42 64M101 64L102 65L101 64M151 64L152 65L151 64z"/>
<path style="fill:#6c3ead; stroke:none;" d="M170 64L171 65L170 64z"/>
<path style="fill:#c56aaf; stroke:none;" d="M41 65L42 66L41 65z"/>
<path style="fill:#6c3ead; stroke:none;" d="M49 65L50 66L49 65z"/>
<path style="fill:#c56aaf; stroke:none;" d="M64 65L65 66L64 65z"/>
<path style="fill:#6c3ead; stroke:none;" d="M121 65L122 66L121 65M152 65L153 66L152 65M40 66L41 67L40 66z"/>
<path style="fill:#c56aaf; stroke:none;" d="M102.333 66.6667L102.667 67.3333L102.333 66.6667M121 66L122 67L121 66M152.333 66.6667L152.667 67.3333L152.333 66.6667z"/>
<path style="fill:#6c3ead; stroke:none;" d="M39 67L40 68L39 67z"/>
<path style="fill:#c56aaf; stroke:none;" d="M171 68L171 71L172 71L171 68M36 69L37 70L36 69M63 69L64 70L63 69z"/>
<path style="fill:#6c3ead; stroke:none;" d="M120 69L120 73L121 73L120 69z"/>
<path style="fill:#c56aaf; stroke:none;" d="M35 70L36 71L35 70z"/>
<path style="fill:#6c3ead; stroke:none;" d="M153 70L154 71L153 70z"/>
<path style="fill:#c56aaf; stroke:none;" d="M34 71L35 72L34 71M153 71L153 77L154 77L153 71z"/>
<path style="fill:#6c3ead; stroke:none;" d="M171 71L171 75L172 75L171 71M33 72L34 73L33 72M103 72L104 73L103 72M32 73L33 74L32 73z"/>
<path style="fill:#c56aaf; stroke:none;" d="M171 75L171 78L172 78L171 75M28 76L29 77L28 76M121.333 76.6667L121.667 77.3333L121.333 76.6667M27 77L28 78L27 77M48 77L49 80L50 80L50 77L48 77M102.333 77.6667L102.667 78.3333L102.333 77.6667z"/>
<path style="fill:#6c3ead; stroke:none;" d="M153 77L154 78L153 77M26 78L27 79L26 78M121 78L122 79L121 78M25 79L26 80L25 79M45 79L46 80L45 79z"/>
<path style="fill:#c56aaf; stroke:none;" d="M64 79L65 80L64 79M44 80L45 81L44 80M101 80L102 81L101 80M122 80L123 81L122 80z"/>
<path style="fill:#6c3ead; stroke:none;" d="M170 80L171 81L170 80z"/>
<path style="fill:#c56aaf; stroke:none;" d="M22 81L23 82L22 81M43 81L44 82L43 81M65 81L66 82L65 81z"/>
<path style="fill:#6c3ead; stroke:none;" d="M122 81L123 82L122 81z"/>
<path style="fill:#c56aaf; stroke:none;" d="M152 81L153 82L152 81M170 81L171 82L170 81M21 82L22 83L21 82z"/>
<path style="fill:#6c3ead; stroke:none;" d="M41 82L42 83L41 82z"/>
<path style="fill:#c56aaf; stroke:none;" d="M50 82L51 83L50 82M100 82L101 83L100 82z"/>
<path style="fill:#6c3ead; stroke:none;" d="M152 82L153 83L152 82z"/>
<path style="fill:#c56aaf; stroke:none;" d="M20 83L21 84L20 83z"/>
<path style="fill:#6c3ead; stroke:none;" d="M40 83L41 84L40 83z"/>
<path style="fill:#c56aaf; stroke:none;" d="M66 83L67 84L66 83M123 83L124 84L123 83z"/>
<path style="fill:#6c3ead; stroke:none;" d="M19 84L20 85L19 84z"/>
<path style="fill:#c56aaf; stroke:none;" d="M39 84L40 85L39 84M99 84L100 85L99 84z"/>
<path style="fill:#6c3ead; stroke:none;" d="M151 84L152 85L151 84M18 85L19 86L18 85z"/>
<path style="fill:#c56aaf; stroke:none;" d="M38 85L39 86L38 85M51 85L52 86L51 85M98 85L99 86L98 85M124 85L125 86L124 85z"/>
<path style="fill:#6c3ead; stroke:none;" d="M36 86L37 87L36 86z"/>
<path style="fill:#c56aaf; stroke:none;" d="M97 86L98 87L97 86M125 86L126 87L125 86z"/>
<path style="fill:#6c3ead; stroke:none;" d="M150 86L151 87L150 86M168 86L169 87L168 86z"/>
<path style="fill:#c56aaf; stroke:none;" d="M15 87L16 88L15 87z"/>
<path style="fill:#6c3ead; stroke:none;" d="M35 87L36 88L35 87z"/>
<path style="fill:#c56aaf; stroke:none;" d="M52 87L53 88L52 87M96 87L97 88L96 87M149 87L150 88L149 87M168 87L169 88L168 87z"/>
<path style="fill:#6c3ead; stroke:none;" d="M14 88L15 89L14 88z"/>
<path style="fill:#c56aaf; stroke:none;" d="M34 88L35 89L34 88M95 88L96 89L95 88z"/>
<path style="fill:#6c3ead; stroke:none;" d="M126 88L127 89L126 88M13 89L14 90L13 89z"/>
<path style="fill:#c56aaf; stroke:none;" d="M33 89L34 90L33 89M53 89L54 90L53 89M72 89L73 90L72 89M93 89L94 90L93 89z"/>
<path style="fill:#6c3ead; stroke:none;" d="M127 89L128 90L127 89z"/>
<path style="fill:#c56aaf; stroke:none;" d="M167 89L168 90L167 89z"/>
<path style="fill:#6c3ead; stroke:none;" d="M12 90L13 91L12 90z"/>
<path style="fill:#c56aaf; stroke:none;" d="M74 90L75 91L74 90M146 90L147 91L146 90z"/>
<path style="fill:#6c3ead; stroke:none;" d="M30 91L31 92L30 91z"/>
<path style="fill:#c56aaf; stroke:none;" d="M54 91L55 92L54 91M76 91L77 92L76 91M89 91L90 92L89 91z"/>
<path style="fill:#6c3ead; stroke:none;" d="M130 91L131 92L130 91M145 91L146 92L145 91z"/>
<path style="fill:#c56aaf; stroke:none;" d="M9 92L10 93L9 92z"/>
<path style="fill:#6c3ead; stroke:none;" d="M29 92L30 93L29 92z"/>
<path style="fill:#c56aaf; stroke:none;" d="M55 92L56 93L55 92M80 92L80 93L87 93L80 92z"/>
<path style="fill:#6c3ead; stroke:none;" d="M132 92L133 93L132 92z"/>
<path style="fill:#c56aaf; stroke:none;" d="M133 92L134 93L133 92M142 92L143 93L142 92z"/>
<path style="fill:#6c3ead; stroke:none;" d="M143 92L144 93L143 92M165 92L166 93L165 92z"/>
<path style="fill:#c56aaf; stroke:none;" d="M8 93L9 94L8 93M29 93L29 94L52 94L29 93z"/>
<path style="fill:#6c3ead; stroke:none;" d="M111 93L112 94L111 93M138 93L139 94L138 93M7 94L8 95L7 94z"/>
<path style="fill:#c56aaf; stroke:none;" d="M52 94L53 95L52 94M109 94L110 95L109 94z"/>
<path style="fill:#6c3ead; stroke:none;" d="M6 95L7 96L6 95z"/>
<path style="fill:#c56aaf; stroke:none;" d="M108 95L109 96L108 95M163 95L164 96L163 95M5 96L5 106L6 106L5 96z"/>
<path style="fill:#6c3ead; stroke:none;" d="M53 96L54 97L53 96z"/>
<path style="fill:#c56aaf; stroke:none;" d="M58 96L59 97L58 96M107 96L108 97L107 96M113 96L114 97L113 96M162 96L163 97L162 96z"/>
<path style="fill:#6c3ead; stroke:none;" d="M54 97L55 98L54 97z"/>
<path style="fill:#c56aaf; stroke:none;" d="M59 97L60 98L59 97M106 97L107 98L106 97M114 97L115 98L114 97M161 97L162 98L161 97z"/>
<path style="fill:#6c3ead; stroke:none;" d="M55 98L56 99L55 98z"/>
<path style="fill:#c56aaf; stroke:none;" d="M105 98L106 99L105 98M115 98L116 99L115 98M160 98L161 99L160 98z"/>
<path style="fill:#6c3ead; stroke:none;" d="M56 99L57 100L56 99z"/>
<path style="fill:#c56aaf; stroke:none;" d="M104 99L105 100L104 99z"/>
<path style="fill:#6c3ead; stroke:none;" d="M117 99L118 100L117 99z"/>
<path style="fill:#c56aaf; stroke:none;" d="M159 99L160 100L159 99z"/>
<path style="fill:#6c3ead; stroke:none;" d="M57 100L58 101L57 100z"/>
<path style="fill:#c56aaf; stroke:none;" d="M63 100L64 101L63 100z"/>
<path style="fill:#6c3ead; stroke:none;" d="M118 100L119 101L118 100M157 100L158 101L157 100M58 101L59 102L58 101z"/>
<path style="fill:#c56aaf; stroke:none;" d="M101 101L102 102L101 101M119 101L120 102L119 101z"/>
<path style="fill:#6c3ead; stroke:none;" d="M120 101L121 102L120 101z"/>
<path style="fill:#c56aaf; stroke:none;" d="M156 101L157 102L156 101M66 102L67 103L66 102M99 102L100 103L99 102M121 102L122 103L121 102z"/>
<path style="fill:#6c3ead; stroke:none;" d="M154 102L155 103L154 102z"/>
<path style="fill:#c56aaf; stroke:none;" d="M61 103L62 104L61 103M68 103L69 104L68 103M123 103L124 104L123 103M152 103L153 104L152 103z"/>
<path style="fill:#6c3ead; stroke:none;" d="M62 104L63 105L62 104z"/>
<path style="fill:#c56aaf; stroke:none;" d="M70.6667 104.333L71.3333 104.667L70.6667 104.333M95 104L96 105L95 104M125.667 104.333L126.333 104.667L125.667 104.333z"/>
<path style="fill:#6c3ead; stroke:none;" d="M149 104L150 105L149 104z"/>
<path style="fill:#c56aaf; stroke:none;" d="M150 104L151 105L150 104M6 106L6 107L66 107L48 106L6 106M73.6667 105.333L74.3333 105.667L73.6667 105.333M92 105L93 106L92 105M129 105L130 106L129 105z"/>
<path style="fill:#6c3ead; stroke:none;" d="M130.667 105.333L131.333 105.667L130.667 105.333M145.667 105.333L146.333 105.667L145.667 105.333z"/>
<path style="fill:#c56aaf; stroke:none;" d="M147 105L148 106L147 105M78.6667 106.333L79.3333 106.667L78.6667 106.333M86 106L86 107L89 107L86 106M136 106L136 107L141 107L136 106z"/>
</svg>
